<svg xmlns="http://www.w3.org/2000/svg" width="161.4711456298828" height="242.67562866210938" viewBox="0.3560047149658203 -20.705724716186523 161.4711456298828 242.67562866210938"><title>Neo4j Graph Visualization</title><desc>Created using Neo4j (http://www.neo4j.com/)</desc><g class="layer relationships"><g class="relationship" transform="translate(132.82714961743147 8.294275685450794) rotate(520.2064544362081)"><path class="outline" fill="#A5ABB6" stroke="none" d="M 21.40063509461097,12.933012701892217 L 21.90063509461097,12.06698729810778 A 59.93261158986889 59.93261158986889 0 0 0 39.303600852483136,18.76485060381112 L 39.09397641423846,19.74263258098732 A 60.93261158986889 60.93261158986889 0 0 1 21.40063509461097,12.933012701892217 Z M 60.9449740120706,20.4163954546119 L 60.79598920925879,19.42755596888577 A 59.93261158986889 59.93261158986889 0 0 0 78.57855140249704,13.814618068358925 L 77.2414691460582,11.12906206642629 L 85.06769578307966,11.142352136990388 L 80.36132774441549,17.395359404269104 L 79.02424548797664,14.709803402336469 A 60.93261158986889 60.93261158986889 0 0 1 60.9449740120706,20.4163954546119"/><text text-anchor="middle" pointer-events="none" font-size="8px" fill="#000000" x="50.0044214573517" y="23.567726703245732" transform="rotate(180 50.0044214573517 20.567726703245732)" font-family="sans-serif">trek</text></g><g class="relationship" transform="translate(31.727924496272063 44.67937177729648) rotate(451.27366778196966)"><path class="outline" fill="#A5ABB6" stroke="none" d="M 25 0.5 L 38.95465613691744 0.5 L 38.95465613691744 -0.5 L 25 -0.5 Z M 60.754656327652306 0.5 L 74.70931246456975 0.5 L 74.70931246456975 3.5 L 81.70931246456975 0 L 74.70931246456975 -3.5 L 74.70931246456975 -0.5 L 60.754656327652306 -0.5 Z"/><text text-anchor="middle" pointer-events="none" font-size="8px" fill="#000000" x="49.854656232284874" y="3" transform="rotate(180 49.854656232284874 0)" font-family="sans-serif">trek</text></g><g class="relationship" transform="translate(29.35600424250397 151.36231962263372) rotate(382.7889312216581)"><path class="outline" fill="#A5ABB6" stroke="none" d="M 25 0.5 L 39.30972892447647 0.5 L 39.30972892447647 -0.5 L 25 -0.5 Z M 61.10972911521133 0.5 L 75.4194580396878 0.5 L 75.4194580396878 3.5 L 82.4194580396878 0 L 75.4194580396878 -3.5 L 75.4194580396878 -0.5 L 61.10972911521133 -0.5 Z"/><text text-anchor="middle" pointer-events="none" font-size="8px" fill="#000000" x="50.2097290198439" y="3" font-family="sans-serif">trek</text></g><g class="relationship" transform="translate(132.82714961743147 8.294275685450794) rotate(520.2064544362081)"><path class="outline" fill="#A5ABB6" stroke="none" d="M 25 0.5 L 38.22366456625914 0.5 L 38.22366456625914 -0.5 L 25 -0.5 Z M 62.22366456625914 0.5 L 75.44732913251828 0.5 L 75.44732913251828 3.5 L 82.44732913251828 0 L 75.44732913251828 -3.5 L 75.44732913251828 -0.5 L 62.22366456625914 -0.5 Z"/><text text-anchor="middle" pointer-events="none" font-size="8px" fill="#000000" x="50.22366456625914" y="3" transform="rotate(180 50.22366456625914 0)" font-family="sans-serif">road</text></g><g class="relationship" transform="translate(132.82714961743147 8.294275685450794) rotate(520.2064544362081)"><path class="outline" fill="#A5ABB6" stroke="none" d="M 21.40063509461097,-12.933012701892217 L 21.90063509461097,-12.06698729810778 A 59.93261158986889 59.93261158986889 0 0 1 22.22727106693174,-12.254205221798436 L 21.732721120978372,-13.123354432784396 A 60.93261158986889 60.93261158986889 0 0 0 21.40063509461097,-12.933012701892217 Z M 78.68106332626488,-14.879323629183787 L 78.24100139986655,-13.981356201637233 A 59.93261158986889 59.93261158986889 0 0 1 78.57855140249704,-13.814618068358925 L 77.2414691460582,-11.12906206642629 L 85.06769578307966,-11.142352136990388 L 80.36132774441549,-17.395359404269104 L 79.02424548797664,-14.709803402336469 A 60.93261158986889 60.93261158986889 0 0 0 78.68106332626488,-14.879323629183787"/><text text-anchor="middle" pointer-events="none" font-size="8px" fill="#000000" x="50.004421457351675" y="-17.567726703245732" transform="rotate(180 50.004421457351675 -20.567726703245732)" font-family="sans-serif">PublicTrans…</text></g></g><g class="layer nodes"><g class="node" transform="translate(132.82714961743147,8.294275685450794)"><circle class="outline" cx="0" cy="0" r="25" fill="#A5ABB6" stroke="#9AA1AC" stroke-width="2px"/><text text-anchor="middle" pointer-events="none" font-family="sans-serif" dy="1.5625" font-size="25" fill="#FFFFFF"/><text text-anchor="middle" pointer-events="none" x="0" y="5" font-size="10px" fill="#FFFFFF" font-family="sans-serif"> Darjeeli…</text></g><g class="node" transform="translate(128.39008424946314,192.96990261798996)"><circle class="outline" cx="0" cy="0" r="25" fill="#A5ABB6" stroke="#9AA1AC" stroke-width="2px"/><text text-anchor="middle" pointer-events="none" font-family="sans-serif" dy="1.5625" font-size="25" fill="#FFFFFF"/><text text-anchor="middle" pointer-events="none" x="0" y="5" font-size="10px" fill="#FFFFFF" font-family="sans-serif"> Sandak…</text></g><g class="node" transform="translate(31.727924496272063,44.67937177729648)"><circle class="outline" cx="0" cy="0" r="25" fill="#A5ABB6" stroke="#9AA1AC" stroke-width="2px"/><text text-anchor="middle" pointer-events="none" font-family="sans-serif" dy="1.5625" font-size="25" fill="#FFFFFF"/><text text-anchor="middle" pointer-events="none" x="0" y="5" font-size="10px" fill="#FFFFFF" font-family="sans-serif"> Rimbik</text></g><g class="node" transform="translate(29.35600424250397,151.36231962263372)"><circle class="outline" cx="0" cy="0" r="25" fill="#A5ABB6" stroke="#9AA1AC" stroke-width="2px"/><text text-anchor="middle" pointer-events="none" font-family="sans-serif" dy="1.5625" font-size="25" fill="#FFFFFF"/><text text-anchor="middle" pointer-events="none" x="0" y="5" font-size="10px" fill="#FFFFFF" font-family="sans-serif"> BhikeB…</text></g></g></svg>