<svg xmlns="http://www.w3.org/2000/svg" width="197.0501708984375" height="265.1583251953125" viewBox="-36.10660171508789 -20.968677520751953 197.0501708984375 265.1583251953125"><title>Neo4j Graph Visualization</title><desc>Created using Neo4j (http://www.neo4j.com/)</desc><g class="layer relationships"><g class="relationship" transform="translate(31.28752788341592 45.601391889857126) rotate(339.5318078659135)"><path class="outline" fill="#A5ABB6" stroke="none" d="M 17.324116139070416,18.03122292025696 L 18.031222920256962,17.324116139070412 A 47.84486202211731 47.84486202211731 0 0 0 18.117701950198132,17.410374676418137 L 17.412402657345467,18.119284337448043 A 48.84486202211731 48.84486202211731 0 0 1 17.324116139070416,18.03122292025696 Z M 83.13541707785654,21.013811030673367 L 82.49517025388835,20.245641775626908 A 47.84486202211731 47.84486202211731 0 0 0 82.58889762451105,20.167319761600904 L 80.66228019738107,17.867722994887433 L 88.2757263180308,16.05514522608319 L 85.15772086068436,23.23344878388553 L 83.23110343355438,20.93385201717206 A 48.84486202211731 48.84486202211731 0 0 1 83.13541707785654,21.013811030673367"/><text text-anchor="middle" pointer-events="none" font-size="8px" fill="#000000" x="49.735540859618915" y="34.79073416607805" font-family="sans-serif">CHEAPEST_FLI…</text></g><g class="relationship" transform="translate(29.923057507736722 152.3006097606499) rotate(270.7326589096838)"><path class="outline" fill="#A5ABB6" stroke="none" d="M 5.987513214418485,24.277555179777966 L 6.953439040707552,24.018736134675446 A 46.10182445362662 46.10182445362662 0 0 0 14.622252504788143,39.77355541110275 L 13.822671797265357,40.37411406115897 A 47.10182445362662 47.10182445362662 0 0 1 5.987513214418485,24.277555179777966 Z M 85.34346261588783,44.83032397541421 L 84.62461401311847,44.135157314607945 A 46.10182445362662 46.10182445362662 0 0 0 94.1897786482369,29.454126837055416 L 91.41079556666598,28.323970638849758 L 97.28997362431191,23.158192346424244 L 97.89508942366477,30.961001767996294 L 95.11610634209386,29.830845569790636 A 47.10182445362662 47.10182445362662 0 0 1 85.34346261588783,44.83032397541421"/><text text-anchor="middle" pointer-events="none" font-size="8px" fill="#000000" x="48.58640516818587" y="61.598336467012764" font-family="sans-serif">CHEAPEST_FLIGHT</text></g><g class="relationship" transform="translate(29.923057507736722 152.3006097606499) rotate(382.08565019809026)"><path class="outline" fill="#A5ABB6" stroke="none" d="M 5.987513214418485,24.277555179777966 L 6.953439040707552,24.018736134675446 A 46.484734833768776 46.484734833768776 0 0 0 14.89497208796022,40.180556645121804 L 14.099888003065438,40.787055860246625 A 47.484734833768776 47.484734833768776 0 0 1 5.987513214418485,24.277555179777966 Z M 85.76870519750693,45.22326645333076 L 85.05448703094481,44.52334330715495 A 46.484734833768776 46.484734833768776 0 0 0 94.92855354623369,29.464286238263185 L 92.1486533001362,28.3363879176034 L 98.02363300212276,23.16583538414569 L 98.63508720769698,30.968150665809564 L 95.8551869615995,29.84025234514978 A 47.484734833768776 47.484734833768776 0 0 1 85.76870519750693,45.22326645333076"/><text text-anchor="middle" pointer-events="none" font-size="8px" fill="#000000" x="48.95150387662329" y="61.88258414523497" font-family="sans-serif">CHEAPEST_FLIGHT</text></g><g class="relationship" transform="translate(29.923057507736722 152.3006097606499) rotate(382.08565019809026)"><path class="outline" fill="#A5ABB6" stroke="none" d="M 12.698856172145504,21.540405101092272 L 13.549972844582506,21.015428520757713 A 45.00472536930196 45.00472536930196 0 0 0 15.542569826636303,23.97635876200102 L 14.735728437865696,24.567126883489234 A 46.00472536930196 46.00472536930196 0 0 1 12.698856172145504,21.540405101092272 Z M 85.85328364923747,28.38093812427304 L 85.1142500297241,27.70726957874863 A 45.00472536930196 45.00472536930196 0 0 0 87.41207922003044,24.976421425047068 L 85.04180583317576,23.13745321663006 L 92.0980506041459,19.752278223788988 L 90.57244373583667,27.428379036269742 L 88.202170348982,25.589410827852735 A 46.00472536930196 46.00472536930196 0 0 1 85.85328364923747,28.38093812427304"/><text text-anchor="middle" pointer-events="none" font-size="8px" fill="#000000" x="49.41747073830971" y="45.82843569926381" font-family="sans-serif">CHEAPEST_FLIGHT</text></g><g class="relationship" transform="translate(29.923057507736722 152.3006097606499) rotate(382.08565019809026)"><path class="outline" fill="#A5ABB6" stroke="none" d="M 18.343228848217933,16.993409175968942 L 19.008024713831873,16.246384104727944 A 49.407979095475426 49.407979095475426 0 0 0 20.452749201928434,17.483085458730955 L 19.817194048331977,18.2551409274228 A 50.407979095475426 50.407979095475426 0 0 1 18.343228848217933,16.993409175968942 Z M 80.57229120637246,20.764890060021976 L 80.00257889540805,19.943045863877963 A 49.407979095475426 49.407979095475426 0 0 0 81.54438148277563,18.82971578385436 L 79.74162793477731,16.431783415087583 L 87.4400159345645,15.022946233319391 L 83.94805288010673,22.02695894221006 L 82.14529933210841,19.629026573443284 A 50.407979095475426 50.407979095475426 0 0 1 80.57229120637246,20.764890060021976"/><text text-anchor="middle" pointer-events="none" font-size="8px" fill="#000000" x="49.79433923647167" y="32.202835624379404" font-family="sans-serif">CHEAPEST_F…</text></g><g class="relationship" transform="translate(29.923057507736722 152.3006097606499) rotate(382.08565019809026)"><path class="outline" fill="#A5ABB6" stroke="none" d="M 22.446385545045896,11.018610437035811 L 22.869003806786598,10.112302649999162 A 68.58492346892787 68.58492346892787 0 0 0 23.173040540938704,10.253174115560988 L 22.754855275821377,11.161535873914318 A 69.58492346892787 69.58492346892787 0 0 1 22.446385545045896,11.018610437035811 Z M 77.62926859414497,12.588457472864867 L 77.25885755732304,11.659589525414589 A 68.58492346892787 68.58492346892787 0 0 0 77.56980472902659,11.53470973548457 L 76.4449703565351,8.75356830893653 L 84.2466071197206,9.373619770762433 L 79.06958389234856,15.242898304215291 L 77.94474951985707,12.46175687766725 A 69.58492346892787 69.58492346892787 0 0 1 77.62926859414497,12.588457472864867"/><text text-anchor="middle" pointer-events="none" font-size="8px" fill="#000000" x="50.058408742854546" y="20.01483092326996" font-family="sans-serif">CHEAPEST…</text></g><g class="relationship" transform="translate(29.923057507736722 152.3006097606499) rotate(270.7326589096838)"><path class="outline" fill="#A5ABB6" stroke="none" d="M 17.324116139070416,18.03122292025696 L 18.031222920256962,17.324116139070412 A 47.30991116096764 47.30991116096764 0 0 0 18.659826296064814,17.94112359350472 L 17.966006442720285,18.6612721969922 A 48.30991116096764 48.30991116096764 0 0 1 17.324116139070416,18.03122292025696 Z M 81.79284436377547,21.49069425539448 L 81.16546870284168,20.711977503251646 A 47.30991116096764 47.30991116096764 0 0 0 81.84620253748876,20.153012522889618 L 79.92090909223106,17.85230716373393 L 87.53539728306166,16.044112043814245 L 84.41326046449905,23.220619668430533 L 82.48796701924134,20.919914309274844 A 48.30991116096764 48.30991116096764 0 0 1 81.79284436377547,21.49069425539448"/><text text-anchor="middle" pointer-events="none" font-size="8px" fill="#000000" x="49.36706415670569" y="34.63396134506917" font-family="sans-serif">CHEAPEST_FL…</text></g><g class="relationship" transform="translate(29.923057507736722 152.3006097606499) rotate(270.7326589096838)"><path class="outline" fill="#A5ABB6" stroke="none" d="M 24.018736134675446,6.953439040707552 L 24.277555179777966,5.987513214418485 A 105.11910639711782 105.11910639711782 0 0 0 24.664476148908587,6.0903990430726225 L 24.40933789012924,7.057303624149284 A 106.11910639711782 106.11910639711782 0 0 1 24.018736134675446,6.953439040707552 Z M 75.2698658444365,7.869378901660227 L 75.04572633994503,6.894821831742661 A 105.11910639711782 105.11910639711782 0 0 0 75.4357347382412,6.804341008640716 L 74.75218575348534,3.8832520361102243 L 82.36553383827165,5.696241539632133 L 76.34713338458234,10.699126305348036 L 75.66358439982648,7.778037332817545 A 106.11910639711782 106.11910639711782 0 0 1 75.2698658444365,7.869378901660227"/><text text-anchor="middle" pointer-events="none" font-size="8px" fill="#000000" x="49.798207243979064" y="13.055899433317151" font-family="sans-serif">CHEAPES…</text></g><g class="relationship" transform="translate(31.28752788341592 45.601391889857126) rotate(339.5318078659135)"><path class="outline" fill="#A5ABB6" stroke="none" d="M 24.018736134675446,6.953439040707552 L 24.277555179777966,5.987513214418485 A 106.58061932933155 106.58061932933155 0 0 0 25.020963236289344,6.183837483448684 L 24.769119268468128,7.151605335710812 A 107.58061932933155 107.58061932933155 0 0 1 24.018736134675446,6.953439040707552 Z M 75.63997394257831,7.958645684256268 L 75.41895527964648,6.983376105813562 A 106.58061932933155 106.58061932933155 0 0 0 76.16821682807176,6.810732284181952 L 75.48407084505949,3.88978307648796 L 83.09778930985979,5.701216525102305 L 77.08041147208813,10.705331227773943 L 76.39626548907586,7.784382020079951 A 107.58061932933155 107.58061932933155 0 0 1 75.63997394257831,7.958645684256268"/><text text-anchor="middle" pointer-events="none" font-size="8px" fill="#000000" x="50.1640832366369" y="13.105687154083341" font-family="sans-serif">CHEAPES…</text></g><g class="relationship" transform="translate(29.923057507736722 152.3006097606499) rotate(382.08565019809026)"><path class="outline" fill="#A5ABB6" stroke="none" d="M 24.663575034869986,4.118017301971641 L 24.808506894177235,3.1285756633906963 A 186.61002611807558 186.61002611807558 0 0 0 27.31065226464389,3.477801818924746 L 27.17912882407232,4.46911487975882 A 187.61002611807558 187.61002611807558 0 0 1 24.663575034869986,4.118017301971641 Z M 73.2256382643145,4.8776474754528465 L 73.11172434531093,3.8841568519152077 A 186.61002611807558 186.61002611807558 0 0 0 75.61967213372934,3.579381109403747 L 75.23761183906144,0.6038089070805914 L 82.62635065492802,3.1838357888991715 L 76.12908585995321,7.546810712501289 L 75.74702556528531,4.571238510178133 A 187.61002611807558 187.61002611807558 0 0 1 73.2256382643145,4.8776474754528465"/><text text-anchor="middle" pointer-events="none" font-size="8px" fill="#000000" x="50.194237764470124" y="8.591507973068104" font-family="sans-serif">CHEAPE…</text></g><g class="relationship" transform="translate(31.28752788341592 45.601391889857126) rotate(339.5318078659135)"><path class="outline" fill="#A5ABB6" stroke="none" d="M 24.018736134675446,-6.953439040707552 L 24.277555179777966,-5.987513214418485 A 106.58061932933155 106.58061932933155 0 0 1 26.096019769337357,-6.457635463821347 L 25.854262593465865,-7.4279722444880605 A 107.58061932933155 107.58061932933155 0 0 0 24.018736134675446,-6.953439040707552 Z M 74.54661006685983,-8.200451679484132 L 74.33575460881131,-7.2229344285820645 A 106.58061932933155 106.58061932933155 0 0 1 76.16821682807176,-6.810732284181952 L 75.48407084505949,-3.88978307648796 L 83.09778930985979,-5.701216525102305 L 77.08041147208813,-10.705331227773943 L 76.39626548907586,-7.784382020079951 A 107.58061932933155 107.58061932933155 0 0 0 74.54661006685983,-8.200451679484132"/><text text-anchor="middle" pointer-events="none" font-size="8px" fill="#000000" x="50.16408323663689" y="-7.105687154083341" font-family="sans-serif">BUSINES…</text></g><g class="relationship" transform="translate(31.28752788341592 45.601391889857126) rotate(339.5318078659135)"><path class="outline" fill="#A5ABB6" stroke="none" d="M 17.324116139070416,-18.03122292025696 L 18.031222920256962,-17.324116139070412 A 47.84486202211731 47.84486202211731 0 0 1 18.841365915995837,-18.115307590006722 L 18.15119184109161,-18.838950973400856 A 48.84486202211731 48.84486202211731 0 0 0 17.324116139070416,-18.03122292025696 Z M 82.33622092356092,-21.665742800019657 L 81.71233602838542,-20.88422655734017 A 47.84486202211731 47.84486202211731 0 0 1 82.58889762451105,-20.167319761600904 L 80.66228019738107,-17.867722994887433 L 88.2757263180308,-16.05514522608319 L 85.15772086068436,-23.23344878388553 L 83.23110343355438,-20.93385201717206 A 48.84486202211731 48.84486202211731 0 0 0 82.33622092356092,-21.665742800019657"/><text text-anchor="middle" pointer-events="none" font-size="8px" fill="#000000" x="49.735540859618915" y="-28.790734166078053" font-family="sans-serif">BUSINESS_FLI…</text></g><g class="relationship" transform="translate(29.923057507736722 152.3006097606499) rotate(382.08565019809026)"><path class="outline" fill="#A5ABB6" stroke="none" d="M 24.663575034869986,-4.118017301971641 L 24.808506894177235,-3.1285756633906963 A 186.61002611807558 186.61002611807558 0 0 1 25.900475067617798,-3.2852300174482423 L 25.76139481337249,-4.275511130506061 A 187.61002611807558 187.61002611807558 0 0 0 24.663575034869986,-4.118017301971641 Z M 74.64658419893252,-4.7092289856367415 L 74.52509634604056,-3.7166360672660232 A 186.61002611807558 186.61002611807558 0 0 1 75.61967213372934,-3.579381109403747 L 75.23761183906144,-0.6038089070805914 L 82.62635065492802,-3.1838357888991715 L 76.12908585995321,-7.546810712501289 L 75.74702556528531,-4.571238510178133 A 187.61002611807558 187.61002611807558 0 0 0 74.64658419893252,-4.7092289856367415"/><text text-anchor="middle" pointer-events="none" font-size="8px" fill="#000000" x="50.19423776447006" y="-2.5915079730681043" font-family="sans-serif">BUSINES…</text></g><g class="relationship" transform="translate(29.923057507736722 152.3006097606499) rotate(270.7326589096838)"><path class="outline" fill="#A5ABB6" stroke="none" d="M 24.018736134675446,-6.953439040707552 L 24.277555179777966,-5.987513214418485 A 105.11910639711782 105.11910639711782 0 0 1 25.7385441386875,-6.3677611644317125 L 25.493623508525747,-7.33730429648989 A 106.11910639711782 106.11910639711782 0 0 0 24.018736134675446,-6.953439040707552 Z M 74.17719383168615,-8.114620723797188 L 73.96335098394057,-7.137752648534175 A 105.11910639711782 105.11910639711782 0 0 1 75.4357347382412,-6.804341008640716 L 74.75218575348534,-3.8832520361102243 L 82.36553383827165,-5.696241539632133 L 76.34713338458234,-10.699126305348036 L 75.66358439982648,-7.778037332817545 A 106.11910639711782 106.11910639711782 0 0 0 74.17719383168615,-8.114620723797188"/><text text-anchor="middle" pointer-events="none" font-size="8px" fill="#000000" x="49.798207243979014" y="-7.055899433317151" font-family="sans-serif">BUSINES…</text></g><g class="relationship" transform="translate(29.923057507736722 152.3006097606499) rotate(382.08565019809026)"><path class="outline" fill="#A5ABB6" stroke="none" d="M 22.446385545045896,-11.018610437035811 L 22.869003806786598,-10.112302649999162 A 68.58492346892787 68.58492346892787 0 0 1 24.09671178551252,-10.670164670638172 L 23.691994075622436,-11.584606344722054 A 69.58492346892787 69.58492346892787 0 0 0 22.446385545045896,-11.018610437035811 Z M 76.67140860341269,-12.962251522464946 L 76.31476290458325,-12.028011807238464 A 68.58492346892787 68.58492346892787 0 0 1 77.56980472902659,-11.53470973548457 L 76.4449703565351,-8.75356830893653 L 84.2466071197206,-9.373619770762433 L 79.06958389234856,-15.242898304215291 L 77.94474951985707,-12.46175687766725 A 69.58492346892787 69.58492346892787 0 0 0 76.67140860341269,-12.962251522464946"/><text text-anchor="middle" pointer-events="none" font-size="8px" fill="#000000" x="50.05840874285453" y="-14.014830923269962" font-family="sans-serif">BUSINESS…</text></g><g class="relationship" transform="translate(29.923057507736722 152.3006097606499) rotate(270.7326589096838)"><path class="outline" fill="#A5ABB6" stroke="none" d="M 17.324116139070416,-18.03122292025696 L 18.031222920256962,-17.324116139070412 A 47.30991116096764 47.30991116096764 0 0 1 18.54865534836378,-17.83366623802246 L 17.852485650240993,-18.551543491747374 A 48.30991116096764 48.30991116096764 0 0 0 17.324116139070416,-18.03122292025696 Z M 81.91562926001248,-21.391440901114223 L 81.28571199026,-20.614778662256455 A 47.30991116096764 47.30991116096764 0 0 1 81.84620253748876,-20.153012522889618 L 79.92090909223106,-17.85230716373393 L 87.53539728306166,-16.044112043814245 L 84.41326046449905,-23.220619668430533 L 82.48796701924134,-20.919914309274844 A 48.30991116096764 48.30991116096764 0 0 0 81.91562926001248,-21.391440901114223"/><text text-anchor="middle" pointer-events="none" font-size="8px" fill="#000000" x="49.367064156705666" y="-28.633961345069167" font-family="sans-serif">BUSINESS_FLI…</text></g><g class="relationship" transform="translate(29.923057507736722 152.3006097606499) rotate(382.08565019809026)"><path class="outline" fill="#A5ABB6" stroke="none" d="M 18.343228848217933,-16.993409175968942 L 19.008024713831873,-16.246384104727944 A 49.407979095475426 49.407979095475426 0 0 1 19.538487867149392,-16.71171098553949 L 18.884428387905203,-17.468154108061483 A 50.407979095475426 50.407979095475426 0 0 0 18.343228848217933,-16.993409175968942 Z M 81.56678779078682,-20.05751705042379 L 80.97734652813145,-19.249705811408617 A 49.407979095475426 49.407979095475426 0 0 1 81.54438148277563,-18.82971578385436 L 79.74162793477731,-16.431783415087583 L 87.4400159345645,-15.022946233319391 L 83.94805288010673,-22.02695894221006 L 82.14529933210841,-19.629026573443284 A 50.407979095475426 50.407979095475426 0 0 0 81.56678779078682,-20.05751705042379"/><text text-anchor="middle" pointer-events="none" font-size="8px" fill="#000000" x="49.79433923647167" y="-26.202835624379404" font-family="sans-serif">BUSINESS_FL…</text></g><g class="relationship" transform="translate(29.923057507736722 152.3006097606499) rotate(270.7326589096838)"><path class="outline" fill="#A5ABB6" stroke="none" d="M 5.987513214418485,-24.277555179777966 L 6.953439040707552,-24.018736134675446 A 46.10182445362662 46.10182445362662 0 0 1 15.2375395224188,-40.57432842561683 L 14.451305076674636,-41.1922567356378 A 47.10182445362662 47.10182445362662 0 0 0 5.987513214418485,-24.277555179777966 Z M 84.618134342352,-45.56410604891682 L 83.91468489411537,-44.8533607543312 A 46.10182445362662 46.10182445362662 0 0 1 94.1897786482369,-29.454126837055416 L 91.41079556666598,-28.323970638849758 L 97.28997362431191,-23.158192346424244 L 97.89508942366477,-30.961001767996294 L 95.11610634209386,-29.830845569790636 A 47.10182445362662 47.10182445362662 0 0 0 84.618134342352,-45.56410604891682"/><text text-anchor="middle" pointer-events="none" font-size="8px" fill="#000000" x="48.58640516818586" y="-55.598336467012764" font-family="sans-serif">BUSINESS_FLIGHT</text></g><g class="relationship" transform="translate(29.923057507736722 152.3006097606499) rotate(382.08565019809026)"><path class="outline" fill="#A5ABB6" stroke="none" d="M 12.698856172145504,-21.540405101092272 L 13.549972844582506,-21.015428520757713 A 45.00472536930196 45.00472536930196 0 0 1 16.148105119684644,-24.784199896302674 L 15.354718657881797,-25.39291815808555 A 46.00472536930196 46.00472536930196 0 0 0 12.698856172145504,-21.540405101092272 Z M 85.14952824664184,-29.135794703361032 L 84.42579208618179,-28.445717917747626 A 45.00472536930196 45.00472536930196 0 0 1 87.41207922003044,-24.976421425047068 L 85.04180583317576,-23.13745321663006 L 92.0980506041459,-19.752278223788988 L 90.57244373583667,-27.428379036269742 L 88.202170348982,-25.589410827852735 A 46.00472536930196 46.00472536930196 0 0 0 85.14952824664184,-29.135794703361032"/><text text-anchor="middle" pointer-events="none" font-size="8px" fill="#000000" x="49.41747073830972" y="-39.82843569926382" font-family="sans-serif">BUSINESS_FLIGHT</text></g><g class="relationship" transform="translate(29.923057507736722 152.3006097606499) rotate(382.08565019809026)"><path class="outline" fill="#A5ABB6" stroke="none" d="M 5.987513214418485,-24.277555179777966 L 6.953439040707552,-24.018736134675446 A 46.484734833768776 46.484734833768776 0 0 1 15.516192181009643,-40.97684935472404 L 14.734472055170905,-41.60047876780417 A 47.484734833768776 47.484734833768776 0 0 0 5.987513214418485,-24.277555179777966 Z M 85.03864996930957,-45.952219887719906 L 84.3398063274395,-45.236945419968 A 46.484734833768776 46.484734833768776 0 0 1 94.92855354623369,-29.464286238263185 L 92.1486533001362,-28.3363879176034 L 98.02363300212276,-23.16583538414569 L 98.63508720769698,-30.968150665809564 L 95.8551869615995,-29.84025234514978 A 47.484734833768776 47.484734833768776 0 0 0 85.03864996930957,-45.952219887719906"/><text text-anchor="middle" pointer-events="none" font-size="8px" fill="#000000" x="48.95150387662328" y="-55.88258414523497" font-family="sans-serif">BUSINESS_FLIGHT</text></g></g><g class="layer nodes"><g class="node" transform="translate(131.94355446813842,8.031323201365163)"><circle class="outline" cx="0" cy="0" r="25" fill="#A5ABB6" stroke="#9AA1AC" stroke-width="2px"/><text text-anchor="middle" pointer-events="none" font-family="sans-serif" dy="1.5625" font-size="25" fill="#FFFFFF"/><text text-anchor="middle" pointer-events="none" x="0" y="5" font-size="10px" fill="#FFFFFF" font-family="sans-serif"> LAX</text></g><g class="node" transform="translate(129.46346292482798,192.6907393893729)"><circle class="outline" cx="0" cy="0" r="25" fill="#A5ABB6" stroke="#9AA1AC" stroke-width="2px"/><text text-anchor="middle" pointer-events="none" font-family="sans-serif" dy="1.5625" font-size="25" fill="#FFFFFF"/><text text-anchor="middle" pointer-events="none" x="0" y="5" font-size="10px" fill="#FFFFFF" font-family="sans-serif"> DAY</text></g><g class="node" transform="translate(31.28752788341592,45.601391889857126)"><circle class="outline" cx="0" cy="0" r="25" fill="#A5ABB6" stroke="#9AA1AC" stroke-width="2px"/><text text-anchor="middle" pointer-events="none" font-family="sans-serif" dy="1.5625" font-size="25" fill="#FFFFFF"/><text text-anchor="middle" pointer-events="none" x="0" y="5" font-size="10px" fill="#FFFFFF" font-family="sans-serif"> ORD</text></g><g class="node" transform="translate(29.923057507736722,152.3006097606499)"><circle class="outline" cx="0" cy="0" r="25" fill="#A5ABB6" stroke="#9AA1AC" stroke-width="2px"/><text text-anchor="middle" pointer-events="none" font-family="sans-serif" dy="1.5625" font-size="25" fill="#FFFFFF"/><text text-anchor="middle" pointer-events="none" x="0" y="5" font-size="10px" fill="#FFFFFF" font-family="sans-serif"> MSP</text></g></g></svg>