<svg xmlns="http://www.w3.org/2000/svg" width="271.97882080078125" height="294.99969482421875" viewBox="-34.801082611083984 -40.489112854003906 271.97882080078125 294.99969482421875"><title>Neo4j Graph Visualization</title><desc>Created using Neo4j (http://www.neo4j.com/)</desc><g class="layer relationships"><g class="relationship" transform="translate(208.17775664346962 44.2665196933469) rotate(210.95450120808238)"><path class="outline" fill="#A5ABB6" stroke="none" d="M 24.018736134675446,6.953439040707552 L 24.277555179777966,5.987513214418485 A 108.49797460832656 108.49797460832656 0 0 0 25.489399011969805,6.304739230925037 L 25.24174924294425,7.273588853880838 A 109.49797460832656 109.49797460832656 0 0 1 24.018736134675446,6.953439040707552 Z M 76.12546505716124,8.07410653913307 L 75.9084147621333,7.097946117159154 A 108.49797460832656 108.49797460832656 0 0 0 77.12963778503098,6.818997828914691 L 76.44471973441327,3.8982295628692603 L 84.05891674757328,5.707650421814266 L 78.04286185252127,10.713355516975266 L 77.35794380190356,7.792587250929834 A 109.49797460832656 109.49797460832656 0 0 1 76.12546505716124,8.07410653913307"/><text text-anchor="middle" pointer-events="none" font-size="8px" fill="#000000" x="50.64432111972684" y="13.171005772336159" transform="rotate(180 50.64432111972684 10.171005772336159)" font-family="sans-serif">CHEAPES…</text></g><g class="relationship" transform="translate(115.21767139367398 -11.489111146622832) rotate(509.1569961878608)"><path class="outline" fill="#A5ABB6" stroke="none" d="M 24.018736134675446,6.953439040707552 L 24.277555179777966,5.987513214418485 A 107.20509350908927 107.20509350908927 0 0 0 25.173437676420164,6.223420123124569 L 24.922975347097815,7.191546469006369 A 108.20509350908927 108.20509350908927 0 0 1 24.018736134675446,6.953439040707552 Z M 75.79810208305292,7.996452164508483 L 75.57839128940967,7.02088711431621 A 107.20509350908927 107.20509350908927 0 0 0 76.48128819482807,6.813439059249653 L 75.7968893771312,3.892549082147619 L 83.41076461101562,5.703323480807285 L 77.39381995175724,10.707959028719031 L 76.70942113406036,7.787069051616998 A 108.20509350908927 108.20509350908927 0 0 1 75.79810208305292,7.996452164508483"/><text text-anchor="middle" pointer-events="none" font-size="8px" fill="#000000" x="50.32046421679362" y="13.126960867852148" transform="rotate(180 50.32046421679362 10.126960867852148)" font-family="sans-serif">CHEAPES…</text></g><g class="relationship" transform="translate(-1.3930571602460176 148.7645686479795) rotate(282.9244901000385)"><path class="outline" fill="#A5ABB6" stroke="none" d="M 24.018736134675446,6.953439040707552 L 24.277555179777966,5.987513214418485 A 107.18280945147151 107.18280945147151 0 0 0 25.167995135024587,6.222011090957153 L 24.91748376500358,7.190124748277512 A 108.18280945147151 108.18280945147151 0 0 1 24.018736134675446,6.953439040707552 Z M 75.79245946166583,7.9951064469418185 L 75.57270225616529,7.019551850504186 A 107.18280945147151 107.18280945147151 0 0 0 76.47011540548318,6.813342715323478 L 75.78572558708211,3.892450629595397 L 83.39959524191556,5.703248486675645 L 77.3826351633513,10.707865496294254 L 76.69824534495022,7.786973410566172 A 108.18280945147151 108.18280945147151 0 0 1 75.79245946166583,7.9951064469418185"/><text text-anchor="middle" pointer-events="none" font-size="8px" fill="#000000" x="50.31488332958624" y="13.126201721130457" font-family="sans-serif">CHEAPES…</text></g><g class="relationship" transform="translate(-1.3930571602460176 148.7645686479795) rotate(401.12504433329536)"><path class="outline" fill="#A5ABB6" stroke="none" d="M 5.987513214418485,24.277555179777966 L 6.953439040707552,24.018736134675446 A 46.998737211630306 46.998737211630306 0 0 0 15.264345994778502,40.724642142752614 L 14.475252727131334,41.33891554682764 A 47.998737211630306 47.998737211630306 0 0 1 5.987513214418485,24.277555179777966 Z M 86.33736651698672,45.748336066380254 L 85.62929302641251,45.04219731801271 A 46.998737211630306 46.998737211630306 0 0 0 95.92029485684947,29.477694393862635 L 93.13918427864823,28.352783752159397 L 99.00860478385722,23.175921485010292 L 99.6284422944511,30.977575249466952 L 96.84733171624987,29.852664607763714 A 47.998737211630306 47.998737211630306 0 0 1 86.33736651698672,45.748336066380254"/><text text-anchor="middle" pointer-events="none" font-size="8px" fill="#000000" x="49.441707307350526" y="62.26414077998017" font-family="sans-serif">CHEAPEST_FLIGHT</text></g><g class="relationship" transform="translate(208.17775664346962 44.2665196933469) rotate(210.95450120808238)"><path class="outline" fill="#A5ABB6" stroke="none" d="M 24.018736134675446,-6.953439040707552 L 24.277555179777966,-5.987513214418485 A 108.49797460832656 108.49797460832656 0 0 1 26.56569573940017,-6.57399887934146 L 26.327965941059002,-7.5453302043694634 A 109.49797460832656 109.49797460832656 0 0 0 24.018736134675446,-6.953439040707552 Z M 75.03123779934424,-8.311544499617781 L 74.82418063215023,-7.333215654334367 A 108.49797460832656 108.49797460832656 0 0 1 77.12963778503098,-6.818997828914691 L 76.44471973441327,-3.8982295628692603 L 84.05891674757328,-5.707650421814266 L 78.04286185252127,-10.713355516975266 L 77.35794380190356,-7.792587250929834 A 109.49797460832656 109.49797460832656 0 0 0 75.03123779934424,-8.311544499617781"/><text text-anchor="middle" pointer-events="none" font-size="8px" fill="#000000" x="50.64432111972681" y="-7.171005772336159" transform="rotate(180 50.64432111972681 -10.171005772336159)" font-family="sans-serif">BUSINES…</text></g><g class="relationship" transform="translate(115.21767139367398 -11.489111146622832) rotate(509.1569961878608)"><path class="outline" fill="#A5ABB6" stroke="none" d="M 24.018736134675446,-6.953439040707552 L 24.277555179777966,-5.987513214418485 A 107.20509350908927 107.20509350908927 0 0 1 26.248905022762674,-6.495723172222796 L 26.008474561434088,-7.466389537801263 A 108.20509350908927 108.20509350908927 0 0 0 24.018736134675446,-6.953439040707552 Z M 74.70445163682662,-8.236818464680454 L 74.49484804249126,-7.259032019058665 A 107.20509350908927 107.20509350908927 0 0 1 76.48128819482807,-6.813439059249653 L 75.7968893771312,-3.892549082147619 L 83.41076461101562,-5.703323480807285 L 77.39381995175724,-10.707959028719031 L 76.70942113406036,-7.787069051616998 A 108.20509350908927 108.20509350908927 0 0 0 74.70445163682662,-8.236818464680454"/><text text-anchor="middle" pointer-events="none" font-size="8px" fill="#000000" x="50.320464216793596" y="-7.126960867852148" transform="rotate(180 50.320464216793596 -10.126960867852148)" font-family="sans-serif">BUSINES…</text></g><g class="relationship" transform="translate(-1.3930571602460176 148.7645686479795) rotate(401.12504433329536)"><path class="outline" fill="#A5ABB6" stroke="none" d="M 12.698856172145504,21.540405101092272 L 13.549972844582506,21.015428520757713 A 45.588062751389614 45.588062751389614 0 0 0 15.884979488518319,24.441861862169524 L 15.085082510514702,25.041999200268624 A 46.588062751389614 46.588062751389614 0 0 1 12.698856172145504,21.540405101092272 Z M 86.44163502415259,28.835841793542325 L 85.70988315694834,28.15427066384045 A 45.588062751389614 45.588062751389614 0 0 0 88.39504804228226,24.99474680589401 L 86.02309059878752,23.157951257595307 L 93.07623056222835,19.76631202912275 L 91.55765796694189,27.44380753695895 L 89.18570052344715,25.607011988660247 A 46.588062751389614 46.588062751389614 0 0 1 86.44163502415259,28.835841793542325"/><text text-anchor="middle" pointer-events="none" font-size="8px" fill="#000000" x="49.90380651683684" y="46.10582352275435" font-family="sans-serif">CHEAPEST_FLIGHT</text></g><g class="relationship" transform="translate(-1.3930571602460176 148.7645686479795) rotate(401.12504433329536)"><path class="outline" fill="#A5ABB6" stroke="none" d="M 18.343228848217933,16.993409175968942 L 19.008024713831873,16.246384104727944 A 50.154807102734594 50.154807102734594 0 0 0 19.172456154484166,16.392071592803667 L 18.51093876704911,17.14200142026828 A 51.154807102734594 51.154807102734594 0 0 1 18.343228848217933,16.993409175968942 Z M 82.93976061956252,19.78101848474325 L 82.34179086391988,18.97949981912361 A 50.154807102734594 50.154807102734594 0 0 0 82.51758626887805,18.847748088765336 L 80.71316183410603,16.451072795948697 L 88.41056602457887,15.036870289766753 L 84.92348551524073,22.043315145854187 L 83.11906108046871,19.64663985303755 A 51.154807102734594 51.154807102734594 0 0 1 82.93976061956252,19.78101848474325"/><text text-anchor="middle" pointer-events="none" font-size="8px" fill="#000000" x="50.277640696637405" y="32.39185351731884" font-family="sans-serif">CHEAPEST_FL…</text></g><g class="relationship" transform="translate(-1.3930571602460176 148.7645686479795) rotate(401.12504433329536)"><path class="outline" fill="#A5ABB6" stroke="none" d="M 22.446385545045896,11.018610437035811 L 22.869003806786598,10.112302649999162 A 69.75971456646735 69.75971456646735 0 0 0 23.62232853374478,10.45814979908534 L 23.210509122481607,11.369415277695644 A 70.75971456646735 70.75971456646735 0 0 1 22.446385545045896,11.018610437035811 Z M 78.12905896368025,12.785534009690444 L 77.7647510237002,11.854255466574848 A 69.75971456646735 69.75971456646735 0 0 0 78.53489867319377,11.547692271202076 L 77.40885483602248,8.767040319452526 L 85.21076053347126,9.383698643094014 L 80.03629045608879,15.255228206868143 L 78.91024661891751,12.474576255118594 A 70.75971456646735 70.75971456646735 0 0 1 78.12905896368025,12.785534009690444"/><text text-anchor="middle" pointer-events="none" font-size="8px" fill="#000000" x="50.53963218917616" y="20.124898220616252" font-family="sans-serif">CHEAPEST…</text></g><g class="relationship" transform="translate(-1.3930571602460176 148.7645686479795) rotate(401.12504433329536)"><path class="outline" fill="#A5ABB6" stroke="none" d="M 24.663575034869986,4.118017301971641 L 24.808506894177235,3.1285756633906963 A 190.0356923168238 190.0356923168238 0 0 0 25.2758090851348,3.1964324265970845 L 25.133336249105025,4.186231138959158 A 191.0356923168238 191.0356923168238 0 0 1 24.663575034869986,4.118017301971641 Z M 76.23688694565968,4.635855627062881 L 76.1118519140403,3.6437032996111327 A 190.0356923168238 190.0356923168238 0 0 0 76.58027571896588,3.584079336595112 L 76.1977758479073,0.6085636084161861 L 83.58689572989313,3.187498925488229 L 77.09027554704399,7.55143364083368 L 76.7077756759854,4.575917912654754 A 191.0356923168238 191.0356923168238 0 0 1 76.23688694565968,4.635855627062881"/><text text-anchor="middle" pointer-events="none" font-size="8px" fill="#000000" x="50.6744073757269" y="8.627666917782562" font-family="sans-serif">CHEAPES…</text></g><g class="relationship" transform="translate(-1.3930571602460176 148.7645686479795) rotate(401.12504433329536)"><path class="outline" fill="#A5ABB6" stroke="none" d="M 24.663575034869986,-4.118017301971641 L 24.808506894177235,-3.1285756633906963 A 190.0356923168238 190.0356923168238 0 0 1 26.37658479846242,-3.351594468700796 L 26.239904430678518,-4.342209670008799 A 191.0356923168238 191.0356923168238 0 0 0 24.663575034869986,-4.118017301971641 Z M 75.12774558989543,-4.772339675773537 L 75.00851649612102,-3.779472905658963 A 190.0356923168238 190.0356923168238 0 0 1 76.58027571896588,-3.584079336595112 L 76.1977758479073,-0.6085636084161861 L 83.58689572989313,-3.187498925488229 L 77.09027554704399,-7.55143364083368 L 76.7077756759854,-4.575917912654754 A 191.0356923168238 191.0356923168238 0 0 0 75.12774558989543,-4.772339675773537"/><text text-anchor="middle" pointer-events="none" font-size="8px" fill="#000000" x="50.67440737572696" y="-2.6276669177825625" font-family="sans-serif">BUSINES…</text></g><g class="relationship" transform="translate(-1.3930571602460176 148.7645686479795) rotate(401.12504433329536)"><path class="outline" fill="#A5ABB6" stroke="none" d="M 22.446385545045896,-11.018610437035811 L 22.869003806786598,-10.112302649999162 A 69.75971456646735 69.75971456646735 0 0 1 24.54895726341312,-10.868832052907798 L 24.15042100182203,-11.785984629198673 A 70.75971456646735 70.75971456646735 0 0 0 22.446385545045896,-11.018610437035811 Z M 77.16892728968644,-13.153109218499203 L 76.81818825229279,-12.216635979347025 A 69.75971456646735 69.75971456646735 0 0 1 78.53489867319377,-11.547692271202076 L 77.40885483602248,-8.767040319452526 L 85.21076053347126,-9.383698643094014 L 80.03629045608879,-15.255228206868143 L 78.91024661891751,-12.474576255118594 A 70.75971456646735 70.75971456646735 0 0 0 77.16892728968644,-13.153109218499203"/><text text-anchor="middle" pointer-events="none" font-size="8px" fill="#000000" x="50.539632189176146" y="-14.124898220616252" font-family="sans-serif">BUSINESS…</text></g><g class="relationship" transform="translate(-1.3930571602460176 148.7645686479795) rotate(401.12504433329536)"><path class="outline" fill="#A5ABB6" stroke="none" d="M 18.343228848217933,-16.993409175968942 L 19.008024713831873,-16.246384104727944 A 50.154807102734594 50.154807102734594 0 0 1 19.05659426291364,-16.2895509851801 L 18.392766789999975,-17.037436729264748 A 51.154807102734594 51.154807102734594 0 0 0 18.343228848217933,-16.993409175968942 Z M 83.06608837037459,-19.686468550110128 L 82.46564909606955,-18.886798194355933 A 50.154807102734594 50.154807102734594 0 0 1 82.51758626887805,-18.847748088765336 L 80.71316183410603,-16.451072795948697 L 88.41056602457887,-15.036870289766753 L 84.92348551524073,-22.043315145854187 L 83.11906108046871,-19.64663985303755 A 51.154807102734594 51.154807102734594 0 0 0 83.06608837037459,-19.686468550110128"/><text text-anchor="middle" pointer-events="none" font-size="8px" fill="#000000" x="50.27764069663741" y="-26.391853517318843" font-family="sans-serif">BUSINESS_FLI…</text></g><g class="relationship" transform="translate(-1.3930571602460176 148.7645686479795) rotate(282.9244901000385)"><path class="outline" fill="#A5ABB6" stroke="none" d="M 24.018736134675446,-6.953439040707552 L 24.277555179777966,-5.987513214418485 A 107.18280945147151 107.18280945147151 0 0 1 26.24344793796474,-6.4943672032173225 L 26.002970385945368,-7.465021903393847 A 108.18280945147151 108.18280945147151 0 0 0 24.018736134675446,-6.953439040707552 Z M 74.69881915080434,-8.235523835234758 L 74.48917113285779,-7.2577469135542145 A 107.18280945147151 107.18280945147151 0 0 1 76.47011540548318,-6.813342715323478 L 75.78572558708211,-3.892450629595397 L 83.39959524191556,-5.703248486675645 L 77.3826351633513,-10.707865496294254 L 76.69824534495022,-7.786973410566172 A 108.18280945147151 108.18280945147151 0 0 0 74.69881915080434,-8.235523835234758"/><text text-anchor="middle" pointer-events="none" font-size="8px" fill="#000000" x="50.314883329586216" y="-7.126201721130457" font-family="sans-serif">BUSINES…</text></g><g class="relationship" transform="translate(-1.3930571602460176 148.7645686479795) rotate(401.12504433329536)"><path class="outline" fill="#A5ABB6" stroke="none" d="M 12.698856172145504,-21.540405101092272 L 13.549972844582506,-21.015428520757713 A 45.588062751389614 45.588062751389614 0 0 1 16.49986774422564,-25.242786626401934 L 15.713458688686735,-25.86049270324302 A 46.588062751389614 46.588062751389614 0 0 0 12.698856172145504,-21.540405101092272 Z M 85.73001237011202,-29.58309103841423 L 85.0135352881642,-28.885480408446814 A 45.588062751389614 45.588062751389614 0 0 1 88.39504804228226,-24.99474680589401 L 86.02309059878752,-23.157951257595307 L 93.07623056222835,-19.76631202912275 L 91.55765796694189,-27.44380753695895 L 89.18570052344715,-25.607011988660247 A 46.588062751389614 46.588062751389614 0 0 0 85.73001237011202,-29.58309103841423"/><text text-anchor="middle" pointer-events="none" font-size="8px" fill="#000000" x="49.903806516836845" y="-40.10582352275435" font-family="sans-serif">BUSINESS_FLIGHT</text></g><g class="relationship" transform="translate(-1.3930571602460176 148.7645686479795) rotate(401.12504433329536)"><path class="outline" fill="#A5ABB6" stroke="none" d="M 5.987513214418485,-24.277555179777966 L 6.953439040707552,-24.018736134675446 A 46.998737211630306 46.998737211630306 0 0 1 15.893332006556697,-41.51496575221137 L 15.117621779584553,-42.14605500403779 A 47.998737211630306 47.998737211630306 0 0 0 5.987513214418485,-24.277555179777966 Z M 85.60113658379552,-46.47088543383452 L 84.90840162035684,-45.74969317761595 A 46.998737211630306 46.998737211630306 0 0 1 95.92029485684947,-29.477694393862635 L 93.13918427864823,-28.352783752159397 L 99.00860478385722,-23.175921485010292 L 99.6284422944511,-30.977575249466952 L 96.84733171624987,-29.852664607763714 A 47.998737211630306 47.998737211630306 0 0 0 85.60113658379552,-46.47088543383452"/><text text-anchor="middle" pointer-events="none" font-size="8px" fill="#000000" x="49.44170730735051" y="-56.26414077998017" font-family="sans-serif">BUSINESS_FLIGHT</text></g></g><g class="layer nodes"><g class="node" transform="translate(208.17775664346962,44.2665196933469)"><circle class="outline" cx="0" cy="0" r="25" fill="#A5ABB6" stroke="#9AA1AC" stroke-width="2px"/><text text-anchor="middle" pointer-events="none" font-family="sans-serif" dy="1.5625" font-size="25" fill="#FFFFFF"/><text text-anchor="middle" pointer-events="none" x="0" y="5" font-size="10px" fill="#FFFFFF" font-family="sans-serif"> LAX</text></g><g class="node" transform="translate(80.24914776125567,220.04847107913653)"><circle class="outline" cx="0" cy="0" r="25" fill="#A5ABB6" stroke="#9AA1AC" stroke-width="2px"/><text text-anchor="middle" pointer-events="none" font-family="sans-serif" dy="1.5625" font-size="25" fill="#FFFFFF"/><text text-anchor="middle" pointer-events="none" x="0" y="5" font-size="10px" fill="#FFFFFF" font-family="sans-serif"> DAY</text></g><g class="node" transform="translate(115.21767139367398,-11.489111146622832)"><circle class="outline" cx="0" cy="0" r="25" fill="#A5ABB6" stroke="#9AA1AC" stroke-width="2px"/><text text-anchor="middle" pointer-events="none" font-family="sans-serif" dy="1.5625" font-size="25" fill="#FFFFFF"/><text text-anchor="middle" pointer-events="none" x="0" y="5" font-size="10px" fill="#FFFFFF" font-family="sans-serif"> LAS</text></g><g class="node" transform="translate(22.704878577498157,43.7537347720817)"><circle class="outline" cx="0" cy="0" r="25" fill="#A5ABB6" stroke="#9AA1AC" stroke-width="2px"/><text text-anchor="middle" pointer-events="none" font-family="sans-serif" dy="1.5625" font-size="25" fill="#FFFFFF"/><text text-anchor="middle" pointer-events="none" x="0" y="5" font-size="10px" fill="#FFFFFF" font-family="sans-serif"> DEN</text></g><g class="node" transform="translate(-1.3930571602460176,148.7645686479795)"><circle class="outline" cx="0" cy="0" r="25" fill="#A5ABB6" stroke="#9AA1AC" stroke-width="2px"/><text text-anchor="middle" pointer-events="none" font-family="sans-serif" dy="1.5625" font-size="25" fill="#FFFFFF"/><text text-anchor="middle" pointer-events="none" x="0" y="5" font-size="10px" fill="#FFFFFF" font-family="sans-serif"> MSP</text></g></g></svg>