<svg xmlns="http://www.w3.org/2000/svg" width="1044.0126953125" height="784.015625" viewBox="-620.8988037109375 -367.4828186035156 1044.0126953125 784.015625"><title>Neo4j Graph Visualization</title><desc>Created using Neo4j (http://www.neo4j.com/)</desc><g class="layer relationships"><g class="relationship" transform="translate(-67.82373382194214 339.4103327584177) rotate(381.74266491302166)"><path class="outline" fill="#A5ABB6" stroke="none" d="M 25 0.5 L 38.7700885187989 0.5 L 38.7700885187989 -0.5 L 25 -0.5 Z M 84.13675340527351 0.5 L 97.90684192407241 0.5 L 97.90684192407241 3.5 L 104.90684192407241 0 L 97.90684192407241 -3.5 L 97.90684192407241 -0.5 L 84.13675340527351 -0.5 Z"/><text text-anchor="middle" pointer-events="none" font-size="8px" fill="#000000" x="61.453420962036205" y="3" font-family="sans-serif">ACTED_IN</text></g><g class="relationship" transform="translate(-67.82373382194214 339.4103327584177) rotate(197.26198869235913)"><path class="outline" fill="#A5ABB6" stroke="none" d="M 25 0.5 L 46.786965647498974 0.5 L 46.786965647498974 -0.5 L 25 -0.5 Z M 92.15363053397358 0.5 L 113.94059618147256 0.5 L 113.94059618147256 3.5 L 120.94059618147256 0 L 113.94059618147256 -3.5 L 113.94059618147256 -0.5 L 92.15363053397358 -0.5 Z"/><text text-anchor="middle" pointer-events="none" font-size="8px" fill="#000000" x="69.47029809073628" y="3" transform="rotate(180 69.47029809073628 0)" font-family="sans-serif">ACTED_IN</text></g><g class="relationship" transform="translate(-67.82373382194214 339.4103327584177) rotate(252.99585611728958)"><path class="outline" fill="#A5ABB6" stroke="none" d="M 25 0.5 L 305.36176042849945 0.5 L 305.36176042849945 -0.5 L 25 -0.5 Z M 350.72842531497406 0.5 L 631.0901857434735 0.5 L 631.0901857434735 3.5 L 638.0901857434735 0 L 631.0901857434735 -3.5 L 631.0901857434735 -0.5 L 350.72842531497406 -0.5 Z"/><text text-anchor="middle" pointer-events="none" font-size="8px" fill="#000000" x="328.04509287173676" y="3" transform="rotate(180 328.04509287173676 0)" font-family="sans-serif">ACTED_IN</text></g><g class="relationship" transform="translate(-67.82373382194214 339.4103327584177) rotate(342.6078701703732)"><path class="outline" fill="#A5ABB6" stroke="none" d="M 25 0.5 L 208.7327010135458 0.5 L 208.7327010135458 -0.5 L 25 -0.5 Z M 254.09936590002042 0.5 L 437.8320669135662 0.5 L 437.8320669135662 3.5 L 444.8320669135662 0 L 437.8320669135662 -3.5 L 437.8320669135662 -0.5 L 254.09936590002042 -0.5 Z"/><text text-anchor="middle" pointer-events="none" font-size="8px" fill="#000000" x="231.4160334567831" y="3" font-family="sans-serif">ACTED_IN</text></g><g class="relationship" transform="translate(-67.82373382194214 339.4103327584177) rotate(274.82156732140703)"><path class="outline" fill="#A5ABB6" stroke="none" d="M 25 0.5 L 158.4950820242034 0.5 L 158.4950820242034 -0.5 L 25 -0.5 Z M 203.86174691067802 0.5 L 337.35682893488143 0.5 L 337.35682893488143 3.5 L 344.35682893488143 0 L 337.35682893488143 -3.5 L 337.35682893488143 -0.5 L 203.86174691067802 -0.5 Z"/><text text-anchor="middle" pointer-events="none" font-size="8px" fill="#000000" x="181.17841446744072" y="3" font-family="sans-serif">ACTED_IN</text></g><g class="relationship" transform="translate(-35.03425857564801 -338.4828104847003) rotate(529.0672188869944)"><path class="outline" fill="#A5ABB6" stroke="none" d="M 25 0.5 L 89.26406835186951 0.5 L 89.26406835186951 -0.5 L 25 -0.5 Z M 134.63073323834413 0.5 L 198.89480159021363 0.5 L 198.89480159021363 3.5 L 205.89480159021363 0 L 198.89480159021363 -3.5 L 198.89480159021363 -0.5 L 134.63073323834413 -0.5 Z"/><text text-anchor="middle" pointer-events="none" font-size="8px" fill="#000000" x="111.94740079510682" y="3" transform="rotate(180 111.94740079510682 0)" font-family="sans-serif">ACTED_IN</text></g><g class="relationship" transform="translate(-35.03425857564801 -338.4828104847003) rotate(412.2886896461891)"><path class="outline" fill="#A5ABB6" stroke="none" d="M 25 0.5 L 313.5043629982668 0.5 L 313.5043629982668 -0.5 L 25 -0.5 Z M 358.8710278847414 0.5 L 647.3753908830082 0.5 L 647.3753908830082 3.5 L 654.3753908830082 0 L 647.3753908830082 -3.5 L 647.3753908830082 -0.5 L 358.8710278847414 -0.5 Z"/><text text-anchor="middle" pointer-events="none" font-size="8px" fill="#000000" x="336.1876954415041" y="3" font-family="sans-serif">ACTED_IN</text></g><g class="relationship" transform="translate(-35.03425857564801 -338.4828104847003) rotate(450.3224850105329)"><path class="outline" fill="#A5ABB6" stroke="none" d="M 25 0.5 L 128.74080188444256 0.5 L 128.74080188444256 -0.5 L 25 -0.5 Z M 174.10746677091717 0.5 L 277.84826865535973 0.5 L 277.84826865535973 3.5 L 284.84826865535973 0 L 277.84826865535973 -3.5 L 277.84826865535973 -0.5 L 174.10746677091717 -0.5 Z"/><text text-anchor="middle" pointer-events="none" font-size="8px" fill="#000000" x="151.42413432767987" y="3" transform="rotate(180 151.42413432767987 0)" font-family="sans-serif">ACTED_IN</text></g><g class="relationship" transform="translate(394.11402081984346 -174.01408380779034) rotate(190.42589408509912)"><path class="outline" fill="#A5ABB6" stroke="none" d="M 25 0.5 L 307.2479003051963 0.5 L 307.2479003051963 -0.5 L 25 -0.5 Z M 352.6145651916709 0.5 L 634.8624654968672 0.5 L 634.8624654968672 3.5 L 641.8624654968672 0 L 634.8624654968672 -3.5 L 634.8624654968672 -0.5 L 352.6145651916709 -0.5 Z"/><text text-anchor="middle" pointer-events="none" font-size="8px" fill="#000000" x="329.9312327484336" y="3" transform="rotate(180 329.9312327484336 0)" font-family="sans-serif">ACTED_IN</text></g><g class="relationship" transform="translate(394.11402081984346 -174.01408380779034) rotate(452.08603060545323)"><path class="outline" fill="#A5ABB6" stroke="none" d="M 25 0.5 L 160.43386286258877 0.5 L 160.43386286258877 -0.5 L 25 -0.5 Z M 205.80052774906338 0.5 L 341.23439061165215 0.5 L 341.23439061165215 3.5 L 348.23439061165215 0 L 341.23439061165215 -3.5 L 341.23439061165215 -0.5 L 205.80052774906338 -0.5 Z"/><text text-anchor="middle" pointer-events="none" font-size="8px" fill="#000000" x="183.11719530582607" y="3" transform="rotate(180 183.11719530582607 0)" font-family="sans-serif">ACTED_IN</text></g><g class="relationship" transform="translate(394.11402081984346 -174.01408380779034) rotate(521.356608310608)"><path class="outline" fill="#A5ABB6" stroke="none" d="M 25 0.5 L 201.19405011468172 0.5 L 201.19405011468172 -0.5 L 25 -0.5 Z M 246.56071500115632 0.5 L 422.75476511583804 0.5 L 422.75476511583804 3.5 L 429.75476511583804 0 L 422.75476511583804 -3.5 L 422.75476511583804 -0.5 L 246.56071500115632 -0.5 Z"/><text text-anchor="middle" pointer-events="none" font-size="8px" fill="#000000" x="223.87738255791902" y="3" transform="rotate(180 223.87738255791902 0)" font-family="sans-serif">ACTED_IN</text></g><g class="relationship" transform="translate(-377.8630814451627 -70.22906155995668) rotate(507.21341032418604)"><path class="outline" fill="#A5ABB6" stroke="none" d="M 25 0.5 L 72.05833575683349 0.5 L 72.05833575683349 -0.5 L 25 -0.5 Z M 117.4250006433081 0.5 L 164.48333640014158 0.5 L 164.48333640014158 3.5 L 171.48333640014158 0 L 164.48333640014158 -3.5 L 164.48333640014158 -0.5 L 117.4250006433081 -0.5 Z"/><text text-anchor="middle" pointer-events="none" font-size="8px" fill="#000000" x="94.74166820007079" y="3" transform="rotate(180 94.74166820007079 0)" font-family="sans-serif">ACTED_IN</text></g><g class="relationship" transform="translate(-377.8630814451627 -70.22906155995668) rotate(532.8255783231182)"><path class="outline" fill="#A5ABB6" stroke="none" d="M 25 0.5 L 81.67902021628497 0.5 L 81.67902021628497 -0.5 L 25 -0.5 Z M 127.04568510275958 0.5 L 183.72470531904455 0.5 L 183.72470531904455 3.5 L 190.72470531904455 0 L 183.72470531904455 -3.5 L 183.72470531904455 -0.5 L 127.04568510275958 -0.5 Z"/><text text-anchor="middle" pointer-events="none" font-size="8px" fill="#000000" x="104.36235265952227" y="3" transform="rotate(180 104.36235265952227 0)" font-family="sans-serif">ACTED_IN</text></g><g class="relationship" transform="translate(-377.8630814451627 -70.22906155995668) rotate(433.04003618430374)"><path class="outline" fill="#A5ABB6" stroke="none" d="M 25 0.5 L 64.62998120448627 0.5 L 64.62998120448627 -0.5 L 25 -0.5 Z M 109.99664609096088 0.5 L 149.62662729544715 0.5 L 149.62662729544715 3.5 L 156.62662729544715 0 L 149.62662729544715 -3.5 L 149.62662729544715 -0.5 L 109.99664609096088 -0.5 Z"/><text text-anchor="middle" pointer-events="none" font-size="8px" fill="#000000" x="87.31331364772358" y="3" font-family="sans-serif">ACTED_IN</text></g><g class="relationship" transform="translate(-377.8630814451627 -70.22906155995668) rotate(472.73062429665436)"><path class="outline" fill="#A5ABB6" stroke="none" d="M 25 0.5 L 65.21866390497426 0.5 L 65.21866390497426 -0.5 L 25 -0.5 Z M 110.58532879144887 0.5 L 150.80399269642314 0.5 L 150.80399269642314 3.5 L 157.80399269642314 0 L 150.80399269642314 -3.5 L 150.80399269642314 -0.5 L 110.58532879144887 -0.5 Z"/><text text-anchor="middle" pointer-events="none" font-size="8px" fill="#000000" x="87.90199634821157" y="3" transform="rotate(180 87.90199634821157 0)" font-family="sans-serif">ACTED_IN</text></g><g class="relationship" transform="translate(-377.8630814451627 -70.22906155995668) rotate(297.3545451830416)"><path class="outline" fill="#A5ABB6" stroke="none" d="M 25 0.5 L 100.17778274702252 0.5 L 100.17778274702252 -0.5 L 25 -0.5 Z M 145.54444763349713 0.5 L 220.72223038051965 0.5 L 220.72223038051965 3.5 L 227.72223038051965 0 L 220.72223038051965 -3.5 L 220.72223038051965 -0.5 L 145.54444763349713 -0.5 Z"/><text text-anchor="middle" pointer-events="none" font-size="8px" fill="#000000" x="122.86111519025982" y="3" font-family="sans-serif">ACTED_IN</text></g><g class="relationship" transform="translate(-377.8630814451627 -70.22906155995668) rotate(379.5430572630429)"><path class="outline" fill="#A5ABB6" stroke="none" d="M 25 0.5 L 376.19309813365106 0.5 L 376.19309813365106 -0.5 L 25 -0.5 Z M 421.5597630201257 0.5 L 772.7528611537767 0.5 L 772.7528611537767 3.5 L 779.7528611537767 0 L 772.7528611537767 -3.5 L 772.7528611537767 -0.5 L 421.5597630201257 -0.5 Z"/><text text-anchor="middle" pointer-events="none" font-size="8px" fill="#000000" x="398.87643057688837" y="3" font-family="sans-serif">ACTED_IN</text></g><g class="relationship" transform="translate(-377.8630814451627 -70.22906155995668) rotate(366.9519470531737)"><path class="outline" fill="#A5ABB6" stroke="none" d="M 25 0.5 L 145.62221699398768 0.5 L 145.62221699398768 -0.5 L 25 -0.5 Z M 190.9888818804623 0.5 L 311.61109887444997 0.5 L 311.61109887444997 3.5 L 318.61109887444997 0 L 311.61109887444997 -3.5 L 311.61109887444997 -0.5 L 190.9888818804623 -0.5 Z"/><text text-anchor="middle" pointer-events="none" font-size="8px" fill="#000000" x="168.30554943722498" y="3" font-family="sans-serif">ACTED_IN</text></g></g><g class="layer nodes"><g class="node" transform="translate(-67.82373382194214,339.4103327584177)"><circle class="outline" cx="0" cy="0" r="25" fill="#57C7E3" stroke="#23b3d7" stroke-width="2px"/><text text-anchor="middle" pointer-events="none" font-family="sans-serif" dy="1.5625" font-size="25" fill="#2A2C34"/><text text-anchor="middle" pointer-events="none" font-family="sans-serif" dy="1.5625" font-size="25" fill="#2A2C34"/><text text-anchor="middle" pointer-events="none" x="0" y="0" font-size="10px" fill="#2A2C34" font-family="sans-serif"> Hugo</text><text text-anchor="middle" pointer-events="none" x="0" y="10" font-size="10px" fill="#2A2C34" font-family="sans-serif"> Weavi…</text></g><g class="node" transform="translate(-36.77820717813881,-28.63944968444715)"><circle class="outline" cx="0" cy="0" r="25" fill="#A5ABB6" stroke="#9AA1AC" stroke-width="2px"/><text text-anchor="middle" pointer-events="none" font-family="sans-serif" dy="1.5625" font-size="25" fill="#FFFFFF"/><text text-anchor="middle" pointer-events="none" font-family="sans-serif" dy="1.5625" font-size="25" fill="#FFFFFF"/><text text-anchor="middle" pointer-events="none" x="0" y="0" font-size="10px" fill="#FFFFFF" font-family="sans-serif"> The</text><text text-anchor="middle" pointer-events="none" x="0" y="10" font-size="10px" fill="#FFFFFF" font-family="sans-serif"> Matrix</text></g><g class="node" transform="translate(52.841143639973964,387.532831922392)"><circle class="outline" cx="0" cy="0" r="25" fill="#A5ABB6" stroke="#9AA1AC" stroke-width="2px"/><text text-anchor="middle" pointer-events="none" font-family="sans-serif" dy="1.5625" font-size="25" fill="#FFFFFF"/><text text-anchor="middle" pointer-events="none" font-family="sans-serif" dy="1.5625" font-size="25" fill="#FFFFFF"/><text text-anchor="middle" pointer-events="none" x="0" y="0" font-size="10px" fill="#FFFFFF" font-family="sans-serif"> Cloud</text><text text-anchor="middle" pointer-events="none" x="0" y="10" font-size="10px" fill="#FFFFFF" font-family="sans-serif"> Atlas</text></g><g class="node" transform="translate(-207.19085536240843,296.1037160892696)"><circle class="outline" cx="0" cy="0" r="25" fill="#A5ABB6" stroke="#9AA1AC" stroke-width="2px"/><text text-anchor="middle" pointer-events="none" font-family="sans-serif" dy="1.5625" font-size="25" fill="#FFFFFF"/><text text-anchor="middle" pointer-events="none" font-family="sans-serif" dy="1.5625" font-size="25" fill="#FFFFFF"/><text text-anchor="middle" pointer-events="none" x="0" y="0" font-size="10px" fill="#FFFFFF" font-family="sans-serif"> V for</text><text text-anchor="middle" pointer-events="none" x="0" y="10" font-size="10px" fill="#FFFFFF" font-family="sans-serif"> Vendet…</text></g><g class="node" transform="translate(-261.73840338456256,-294.6919423973602)"><circle class="outline" cx="0" cy="0" r="25" fill="#A5ABB6" stroke="#9AA1AC" stroke-width="2px"/><text text-anchor="middle" pointer-events="none" font-family="sans-serif" dy="1.5625" font-size="25" fill="#FFFFFF"/><text text-anchor="middle" pointer-events="none" font-family="sans-serif" dy="1.5625" font-size="25" fill="#FFFFFF"/><text text-anchor="middle" pointer-events="none" font-family="sans-serif" dy="1.5625" font-size="25" fill="#FFFFFF"/><text text-anchor="middle" pointer-events="none" x="0" y="-5" font-size="10px" fill="#FFFFFF" font-family="sans-serif"> The</text><text text-anchor="middle" pointer-events="none" x="0" y="5" font-size="10px" fill="#FFFFFF" font-family="sans-serif"> Matrix</text><text text-anchor="middle" pointer-events="none" x="0" y="15" font-size="10px" fill="#FFFFFF" font-family="sans-serif"> Revol…</text></g><g class="node" transform="translate(380.52826681798336,198.97296371993852)"><circle class="outline" cx="0" cy="0" r="25" fill="#A5ABB6" stroke="#9AA1AC" stroke-width="2px"/><text text-anchor="middle" pointer-events="none" font-family="sans-serif" dy="1.5625" font-size="25" fill="#FFFFFF"/><text text-anchor="middle" pointer-events="none" font-family="sans-serif" dy="1.5625" font-size="25" fill="#FFFFFF"/><text text-anchor="middle" pointer-events="none" font-family="sans-serif" dy="1.5625" font-size="25" fill="#FFFFFF"/><text text-anchor="middle" pointer-events="none" x="0" y="-5" font-size="10px" fill="#FFFFFF" font-family="sans-serif"> The</text><text text-anchor="middle" pointer-events="none" x="0" y="5" font-size="10px" fill="#FFFFFF" font-family="sans-serif"> Matrix</text><text text-anchor="middle" pointer-events="none" x="0" y="15" font-size="10px" fill="#FFFFFF" font-family="sans-serif"> Reloa…</text></g><g class="node" transform="translate(-35.03425857564801,-338.4828104847003)"><circle class="outline" cx="0" cy="0" r="25" fill="#57C7E3" stroke="#23b3d7" stroke-width="2px"/><text text-anchor="middle" pointer-events="none" font-family="sans-serif" dy="1.5625" font-size="25" fill="#2A2C34"/><text text-anchor="middle" pointer-events="none" x="0" y="5" font-size="10px" fill="#2A2C34" font-family="sans-serif"> Lauren…</text></g><g class="node" transform="translate(394.11402081984346,-174.01408380779034)"><circle class="outline" cx="0" cy="0" r="25" fill="#57C7E3" stroke="#23b3d7" stroke-width="2px"/><text text-anchor="middle" pointer-events="none" font-family="sans-serif" dy="1.5625" font-size="25" fill="#2A2C34"/><text text-anchor="middle" pointer-events="none" x="0" y="5" font-size="10px" fill="#2A2C34" font-family="sans-serif"> Carrie-…</text></g><g class="node" transform="translate(-377.8630814451627,-70.22906155995668)"><circle class="outline" cx="0" cy="0" r="25" fill="#57C7E3" stroke="#23b3d7" stroke-width="2px"/><text text-anchor="middle" pointer-events="none" font-family="sans-serif" dy="1.5625" font-size="25" fill="#2A2C34"/><text text-anchor="middle" pointer-events="none" font-family="sans-serif" dy="1.5625" font-size="25" fill="#2A2C34"/><text text-anchor="middle" pointer-events="none" x="0" y="0" font-size="10px" fill="#2A2C34" font-family="sans-serif"> Keanu</text><text text-anchor="middle" pointer-events="none" x="0" y="10" font-size="10px" fill="#2A2C34" font-family="sans-serif"> Reeves</text></g><g class="node" transform="translate(-543.0453195961289,36.16891625150685)"><circle class="outline" cx="0" cy="0" r="25" fill="#A5ABB6" stroke="#9AA1AC" stroke-width="2px"/><text text-anchor="middle" pointer-events="none" font-family="sans-serif" dy="1.5625" font-size="25" fill="#FFFFFF"/><text text-anchor="middle" pointer-events="none" x="0" y="5" font-size="10px" fill="#FFFFFF" font-family="sans-serif"> Someth…</text></g><g class="node" transform="translate(-591.8987819320345,-43.28713508684172)"><circle class="outline" cx="0" cy="0" r="25" fill="#A5ABB6" stroke="#9AA1AC" stroke-width="2px"/><text text-anchor="middle" pointer-events="none" font-family="sans-serif" dy="1.5625" font-size="25" fill="#FFFFFF"/><text text-anchor="middle" pointer-events="none" font-family="sans-serif" dy="1.5625" font-size="25" fill="#FFFFFF"/><text text-anchor="middle" pointer-events="none" x="0" y="0" font-size="10px" fill="#FFFFFF" font-family="sans-serif"> The</text><text text-anchor="middle" pointer-events="none" x="0" y="10" font-size="10px" fill="#FFFFFF" font-family="sans-serif"> Replac…</text></g><g class="node" transform="translate(-324.8819762252592,103.49840959068428)"><circle class="outline" cx="0" cy="0" r="25" fill="#A5ABB6" stroke="#9AA1AC" stroke-width="2px"/><text text-anchor="middle" pointer-events="none" font-family="sans-serif" dy="1.5625" font-size="25" fill="#FFFFFF"/><text text-anchor="middle" pointer-events="none" font-family="sans-serif" dy="1.5625" font-size="25" fill="#FFFFFF"/><text text-anchor="middle" pointer-events="none" x="0" y="0" font-size="10px" fill="#FFFFFF" font-family="sans-serif"> Johnny</text><text text-anchor="middle" pointer-events="none" x="0" y="10" font-size="10px" fill="#FFFFFF" font-family="sans-serif"> Mnem…</text></g><g class="node" transform="translate(-448.4983758598264,98.37685449493064)"><circle class="outline" cx="0" cy="0" r="25" fill="#A5ABB6" stroke="#9AA1AC" stroke-width="2px"/><text text-anchor="middle" pointer-events="none" font-family="sans-serif" dy="1.5625" font-size="25" fill="#FFFFFF"/><text text-anchor="middle" pointer-events="none" font-family="sans-serif" dy="1.5625" font-size="25" fill="#FFFFFF"/><text text-anchor="middle" pointer-events="none" font-family="sans-serif" dy="1.5625" font-size="25" fill="#FFFFFF"/><text text-anchor="middle" pointer-events="none" x="0" y="-5" font-size="10px" fill="#FFFFFF" font-family="sans-serif"> The</text><text text-anchor="middle" pointer-events="none" x="0" y="5" font-size="10px" fill="#FFFFFF" font-family="sans-serif"> Devil's</text><text text-anchor="middle" pointer-events="none" x="0" y="15" font-size="10px" fill="#FFFFFF" font-family="sans-serif"> Advo…</text></g></g></svg>