<svg xmlns="http://www.w3.org/2000/svg" width="286.2947692871094" height="286.7216796875" viewBox="-41.081878662109375 -40.90642166137695 286.2947692871094 286.7216796875"><title>Neo4j Graph Visualization</title><desc>Created using Neo4j (http://www.neo4j.com/)</desc><g class="layer relationships"><g class="relationship" transform="translate(142.1863896313254 216.81524963616596) rotate(251.7933506827398)"><path class="outline" fill="#A5ABB6" stroke="none" d="M 25 0.5 L 32.25657936101766 0.5 L 32.25657936101766 -0.5 L 25 -0.5 Z M 77.62324424749227 0.5 L 84.87982360850992 0.5 L 84.87982360850992 3.5 L 91.87982360850992 0 L 84.87982360850992 -3.5 L 84.87982360850992 -0.5 L 77.62324424749227 -0.5 Z"/><text text-anchor="middle" pointer-events="none" font-size="8px" fill="#000000" x="54.93991180425496" y="3" transform="rotate(180 54.93991180425496 0)" font-family="sans-serif">ACTED_IN</text></g><g class="relationship" transform="translate(216.21290439133475 143.7732350241241) rotate(198.9641280590276)"><path class="outline" fill="#A5ABB6" stroke="none" d="M 25 0.5 L 29.194777757732204 0.5 L 29.194777757732204 -0.5 L 25 -0.5 Z M 80.6947777577322 0.5 L 84.88955551546441 0.5 L 84.88955551546441 3.5 L 91.88955551546441 0 L 84.88955551546441 -3.5 L 84.88955551546441 -0.5 L 80.6947777577322 -0.5 Z"/><text text-anchor="middle" pointer-events="none" font-size="8px" fill="#000000" x="54.944777757732204" y="3" transform="rotate(180 54.944777757732204 0)" font-family="sans-serif">PRODUCED</text></g><g class="relationship" transform="translate(202.64442092016594 39.65212115236687) rotate(505.7073100975438)"><path class="outline" fill="#A5ABB6" stroke="none" d="M 25 0.5 L 31.773763946069444 0.5 L 31.773763946069444 -0.5 L 25 -0.5 Z M 78.60709600783701 0.5 L 85.38085995390647 0.5 L 85.38085995390647 3.5 L 92.38085995390647 0 L 85.38085995390647 -3.5 L 85.38085995390647 -0.5 L 78.60709600783701 -0.5 Z"/><text text-anchor="middle" pointer-events="none" font-size="8px" fill="#000000" x="55.19042997695323" y="3" transform="rotate(180 55.19042997695323 0)" font-family="sans-serif">DIRECTED</text></g><g class="relationship" transform="translate(111.69900255977849 -11.90642243274634) rotate(452.9335333457913)"><path class="outline" fill="#A5ABB6" stroke="none" d="M 25 0.5 L 37.56555348958288 0.5 L 37.56555348958288 -0.5 L 25 -0.5 Z M 73.28222066487585 0.5 L 85.84777415445873 0.5 L 85.84777415445873 3.5 L 92.84777415445873 0 L 85.84777415445873 -3.5 L 85.84777415445873 -0.5 L 73.28222066487585 -0.5 Z"/><text text-anchor="middle" pointer-events="none" font-size="8px" fill="#000000" x="55.42388707722937" y="3" transform="rotate(180 55.42388707722937 0)" font-family="sans-serif">WROTE</text></g><g class="relationship" transform="translate(23.655654840942027 22.614112739710155) rotate(405.40256021255686)"><path class="outline" fill="#A5ABB6" stroke="none" d="M 25 0.5 L 32.219828607473005 0.5 L 32.219828607473005 -0.5 L 25 -0.5 Z M 77.58649349394761 0.5 L 84.80632210142062 0.5 L 84.80632210142062 3.5 L 91.80632210142062 0 L 84.80632210142062 -3.5 L 84.80632210142062 -0.5 L 77.58649349394761 -0.5 Z"/><text text-anchor="middle" pointer-events="none" font-size="8px" fill="#000000" x="54.90316105071031" y="3" font-family="sans-serif">ACTED_IN</text></g><g class="relationship" transform="translate(-12.081877142624277 110.17613390674563) rotate(357.8652436487987)"><path class="outline" fill="#A5ABB6" stroke="none" d="M 25 0.5 L 32.73242180404972 0.5 L 32.73242180404972 -0.5 L 25 -0.5 Z M 78.09908669052433 0.5 L 85.83150849457405 0.5 L 85.83150849457405 3.5 L 92.83150849457405 0 L 85.83150849457405 -3.5 L 85.83150849457405 -0.5 L 78.09908669052433 -0.5 Z"/><text text-anchor="middle" pointer-events="none" font-size="8px" fill="#000000" x="55.415754247287026" y="3" font-family="sans-serif">ACTED_IN</text></g><g class="relationship" transform="translate(38.23461076706468 201.83812004046013) rotate(305.070973506409)"><path class="outline" fill="#A5ABB6" stroke="none" d="M 25 0.5 L 37.32103909840988 0.5 L 37.32103909840988 -0.5 L 25 -0.5 Z M 73.03770627370284 0.5 L 85.35874537211272 0.5 L 85.35874537211272 3.5 L 92.35874537211272 0 L 85.35874537211272 -3.5 L 85.35874537211272 -0.5 L 73.03770627370284 -0.5 Z"/><text text-anchor="middle" pointer-events="none" font-size="8px" fill="#000000" x="55.17937268605636" y="3" font-family="sans-serif">WROTE</text></g></g><g class="layer nodes"><g class="node" transform="translate(142.1863896313254,216.81524963616596)"><circle class="outline" cx="0" cy="0" r="25" fill="#57C7E3" stroke="#23b3d7" stroke-width="2px"/><text text-anchor="middle" pointer-events="none" font-family="sans-serif" dy="1.5625" font-size="25" fill="#2A2C34"/><text text-anchor="middle" pointer-events="none" font-family="sans-serif" dy="1.5625" font-size="25" fill="#2A2C34"/><text text-anchor="middle" pointer-events="none" x="0" y="0" font-size="10px" fill="#2A2C34" font-family="sans-serif"> Hugo</text><text text-anchor="middle" pointer-events="none" x="0" y="10" font-size="10px" fill="#2A2C34" font-family="sans-serif"> Weavi…</text></g><g class="node" transform="translate(105.66785409016376,105.78692113985242)"><circle class="outline" cx="0" cy="0" r="25" fill="#A5ABB6" stroke="#9AA1AC" stroke-width="2px"/><text text-anchor="middle" pointer-events="none" font-family="sans-serif" dy="1.5625" font-size="25" fill="#FFFFFF"/><text text-anchor="middle" pointer-events="none" font-family="sans-serif" dy="1.5625" font-size="25" fill="#FFFFFF"/><text text-anchor="middle" pointer-events="none" x="0" y="0" font-size="10px" fill="#FFFFFF" font-family="sans-serif"> Captain</text><text text-anchor="middle" pointer-events="none" x="0" y="10" font-size="10px" fill="#FFFFFF" font-family="sans-serif"> America</text></g><g class="node" transform="translate(216.21290439133475,143.7732350241241)"><circle class="outline" cx="0" cy="0" r="25" fill="#57C7E3" stroke="#23b3d7" stroke-width="2px"/><text text-anchor="middle" pointer-events="none" font-family="sans-serif" dy="1.5625" font-size="25" fill="#2A2C34"/><text text-anchor="middle" pointer-events="none" font-family="sans-serif" dy="1.5625" font-size="25" fill="#2A2C34"/><text text-anchor="middle" pointer-events="none" x="0" y="0" font-size="10px" fill="#2A2C34" font-family="sans-serif"> Kevin</text><text text-anchor="middle" pointer-events="none" x="0" y="10" font-size="10px" fill="#2A2C34" font-family="sans-serif"> Feige</text></g><g class="node" transform="translate(202.64442092016594,39.65212115236687)"><circle class="outline" cx="0" cy="0" r="25" fill="#57C7E3" stroke="#23b3d7" stroke-width="2px"/><text text-anchor="middle" pointer-events="none" font-family="sans-serif" dy="1.5625" font-size="25" fill="#2A2C34"/><text text-anchor="middle" pointer-events="none" font-family="sans-serif" dy="1.5625" font-size="25" fill="#2A2C34"/><text text-anchor="middle" pointer-events="none" x="0" y="0" font-size="10px" fill="#2A2C34" font-family="sans-serif"> Joe</text><text text-anchor="middle" pointer-events="none" x="0" y="10" font-size="10px" fill="#2A2C34" font-family="sans-serif"> Johnst…</text></g><g class="node" transform="translate(111.69900255977849,-11.90642243274634)"><circle class="outline" cx="0" cy="0" r="25" fill="#57C7E3" stroke="#23b3d7" stroke-width="2px"/><text text-anchor="middle" pointer-events="none" font-family="sans-serif" dy="1.5625" font-size="25" fill="#2A2C34"/><text text-anchor="middle" pointer-events="none" x="0" y="5" font-size="10px" fill="#2A2C34" font-family="sans-serif"> Christo…</text></g><g class="node" transform="translate(23.655654840942027,22.614112739710155)"><circle class="outline" cx="0" cy="0" r="25" fill="#57C7E3" stroke="#23b3d7" stroke-width="2px"/><text text-anchor="middle" pointer-events="none" font-family="sans-serif" dy="1.5625" font-size="25" fill="#2A2C34"/><text text-anchor="middle" pointer-events="none" font-family="sans-serif" dy="1.5625" font-size="25" fill="#2A2C34"/><text text-anchor="middle" pointer-events="none" x="0" y="0" font-size="10px" fill="#2A2C34" font-family="sans-serif"> Samuel</text><text text-anchor="middle" pointer-events="none" x="0" y="10" font-size="10px" fill="#2A2C34" font-family="sans-serif"> L. Jack…</text></g><g class="node" transform="translate(-12.081877142624277,110.17613390674563)"><circle class="outline" cx="0" cy="0" r="25" fill="#57C7E3" stroke="#23b3d7" stroke-width="2px"/><text text-anchor="middle" pointer-events="none" font-family="sans-serif" dy="1.5625" font-size="25" fill="#2A2C34"/><text text-anchor="middle" pointer-events="none" font-family="sans-serif" dy="1.5625" font-size="25" fill="#2A2C34"/><text text-anchor="middle" pointer-events="none" x="0" y="0" font-size="10px" fill="#2A2C34" font-family="sans-serif"> Chris</text><text text-anchor="middle" pointer-events="none" x="0" y="10" font-size="10px" fill="#2A2C34" font-family="sans-serif"> Evans</text></g><g class="node" transform="translate(38.23461076706468,201.83812004046013)"><circle class="outline" cx="0" cy="0" r="25" fill="#57C7E3" stroke="#23b3d7" stroke-width="2px"/><text text-anchor="middle" pointer-events="none" font-family="sans-serif" dy="1.5625" font-size="25" fill="#2A2C34"/><text text-anchor="middle" pointer-events="none" font-family="sans-serif" dy="1.5625" font-size="25" fill="#2A2C34"/><text text-anchor="middle" pointer-events="none" x="0" y="0" font-size="10px" fill="#2A2C34" font-family="sans-serif"> Stephen</text><text text-anchor="middle" pointer-events="none" x="0" y="10" font-size="10px" fill="#2A2C34" font-family="sans-serif"> McFeely</text></g></g></svg>