<svg xmlns="http://www.w3.org/2000/svg" width="422.38037109375" height="269.15911865234375" viewBox="-56.451637268066406 -33.111473083496094 422.38037109375 269.15911865234375"><title>Neo4j Graph Visualization</title><desc>Created using Neo4j (http://www.neo4j.com/)</desc><g class="layer relationships"><g class="relationship" transform="translate(173.21040995903442 -4.111472021610695) rotate(372.0279756268711)"><path class="outline" fill="#A5ABB6" stroke="none" d="M 25 0.5 L 57.513318669042704 0.5 L 57.513318669042704 -0.5 L 25 -0.5 Z M 102.87998355551731 0.5 L 135.39330222456002 0.5 L 135.39330222456002 3.5 L 142.39330222456002 0 L 135.39330222456002 -3.5 L 135.39330222456002 -0.5 L 102.87998355551731 -0.5 Z"/><text text-anchor="middle" pointer-events="none" font-size="8px" fill="#000000" x="80.19665111228001" y="3" font-family="sans-serif">ACTED_IN</text></g><g class="relationship" transform="translate(173.21040995903442 -4.111472021610695) rotate(517.7133373921686)"><path class="outline" fill="#A5ABB6" stroke="none" d="M 25 0.5 L 82.24770288563948 0.5 L 82.24770288563948 -0.5 L 25 -0.5 Z M 127.6143677721141 0.5 L 184.86207065775358 0.5 L 184.86207065775358 3.5 L 191.86207065775358 0 L 184.86207065775358 -3.5 L 184.86207065775358 -0.5 L 127.6143677721141 -0.5 Z"/><text text-anchor="middle" pointer-events="none" font-size="8px" fill="#000000" x="104.93103532887679" y="3" transform="rotate(180 104.93103532887679 0)" font-family="sans-serif">ACTED_IN</text></g><g class="relationship" transform="translate(173.21040995903442 -4.111472021610695) rotate(473.0648760491733)"><path class="outline" fill="#A5ABB6" stroke="none" d="M 25 0.5 L 88.56933919960993 0.5 L 88.56933919960993 -0.5 L 25 -0.5 Z M 133.93600408608455 0.5 L 197.50534328569447 0.5 L 197.50534328569447 3.5 L 204.50534328569447 0 L 197.50534328569447 -3.5 L 197.50534328569447 -0.5 L 133.93600408608455 -0.5 Z"/><text text-anchor="middle" pointer-events="none" font-size="8px" fill="#000000" x="111.25267164284723" y="3" transform="rotate(180 111.25267164284723 0)" font-family="sans-serif">ACTED_IN</text></g><g class="relationship" transform="translate(245.23274736459504 159.37335307289703) rotate(305.4897205224246)"><path class="outline" fill="#A5ABB6" stroke="none" d="M 25 0.5 L 52.789124164071254 0.5 L 52.789124164071254 -0.5 L 25 -0.5 Z M 98.15578905054586 0.5 L 125.94491321461712 0.5 L 125.94491321461712 3.5 L 132.94491321461712 0 L 125.94491321461712 -3.5 L 125.94491321461712 -0.5 L 98.15578905054586 -0.5 Z"/><text text-anchor="middle" pointer-events="none" font-size="8px" fill="#000000" x="75.47245660730856" y="3" font-family="sans-serif">ACTED_IN</text></g><g class="relationship" transform="translate(245.23274736459504 159.37335307289703) rotate(196.59057104579944)"><path class="outline" fill="#A5ABB6" stroke="none" d="M 25 0.5 L 116.08140006345275 0.5 L 116.08140006345275 -0.5 L 25 -0.5 Z M 161.44806494992736 0.5 L 252.5294650133801 0.5 L 252.5294650133801 3.5 L 259.5294650133801 0 L 252.5294650133801 -3.5 L 252.5294650133801 -0.5 L 161.44806494992736 -0.5 Z"/><text text-anchor="middle" pointer-events="none" font-size="8px" fill="#000000" x="138.76473250669005" y="3" transform="rotate(180 138.76473250669005 0)" font-family="sans-serif">ACTED_IN</text></g><g class="relationship" transform="translate(245.23274736459504 159.37335307289703) rotate(523.5955012192179)"><path class="outline" fill="#A5ABB6" stroke="none" d="M 25 0.5 L 58.22079356880178 0.5 L 58.22079356880178 -0.5 L 25 -0.5 Z M 103.58745845527639 0.5 L 136.80825202407817 0.5 L 136.80825202407817 3.5 L 143.80825202407817 0 L 136.80825202407817 -3.5 L 136.80825202407817 -0.5 L 103.58745845527639 -0.5 Z"/><text text-anchor="middle" pointer-events="none" font-size="8px" fill="#000000" x="80.90412601203909" y="3" transform="rotate(180 80.90412601203909 0)" font-family="sans-serif">ACTED_IN</text></g></g><g class="layer nodes"><g class="node" transform="translate(173.21040995903442,-4.111472021610695)"><circle class="outline" cx="0" cy="0" r="25" fill="#57C7E3" stroke="#23b3d7" stroke-width="2px"/><text text-anchor="middle" pointer-events="none" font-family="sans-serif" dy="1.5625" font-size="25" fill="#2A2C34"/><text text-anchor="middle" pointer-events="none" font-family="sans-serif" dy="1.5625" font-size="25" fill="#2A2C34"/><text text-anchor="middle" pointer-events="none" x="0" y="0" font-size="10px" fill="#2A2C34" font-family="sans-serif"> Hugo</text><text text-anchor="middle" pointer-events="none" x="0" y="10" font-size="10px" fill="#2A2C34" font-family="sans-serif"> Weavi…</text></g><g class="node" transform="translate(245.23274736459504,159.37335307289703)"><circle class="outline" cx="0" cy="0" r="25" fill="#57C7E3" stroke="#23b3d7" stroke-width="2px"/><text text-anchor="middle" pointer-events="none" font-family="sans-serif" dy="1.5625" font-size="25" fill="#2A2C34"/><text text-anchor="middle" pointer-events="none" font-family="sans-serif" dy="1.5625" font-size="25" fill="#2A2C34"/><text text-anchor="middle" pointer-events="none" x="0" y="0" font-size="10px" fill="#2A2C34" font-family="sans-serif"> Keanu</text><text text-anchor="middle" pointer-events="none" x="0" y="10" font-size="10px" fill="#2A2C34" font-family="sans-serif"> Reeves</text></g><g class="node" transform="translate(336.9287542305779,30.771494862346444)"><circle class="outline" cx="0" cy="0" r="25" fill="#A5ABB6" stroke="#9AA1AC" stroke-width="2px"/><text text-anchor="middle" pointer-events="none" font-family="sans-serif" dy="1.5625" font-size="25" fill="#FFFFFF"/><text text-anchor="middle" pointer-events="none" font-family="sans-serif" dy="1.5625" font-size="25" fill="#FFFFFF"/><text text-anchor="middle" pointer-events="none" font-family="sans-serif" dy="1.5625" font-size="25" fill="#FFFFFF"/><text text-anchor="middle" pointer-events="none" x="0" y="-5" font-size="10px" fill="#FFFFFF" font-family="sans-serif"> The</text><text text-anchor="middle" pointer-events="none" x="0" y="5" font-size="10px" fill="#FFFFFF" font-family="sans-serif"> Matrix</text><text text-anchor="middle" pointer-events="none" x="0" y="15" font-size="10px" fill="#FFFFFF" font-family="sans-serif"> Revol…</text></g><g class="node" transform="translate(-27.451635426625856,78.13146829311614)"><circle class="outline" cx="0" cy="0" r="25" fill="#A5ABB6" stroke="#9AA1AC" stroke-width="2px"/><text text-anchor="middle" pointer-events="none" font-family="sans-serif" dy="1.5625" font-size="25" fill="#FFFFFF"/><text text-anchor="middle" pointer-events="none" font-family="sans-serif" dy="1.5625" font-size="25" fill="#FFFFFF"/><text text-anchor="middle" pointer-events="none" font-family="sans-serif" dy="1.5625" font-size="25" fill="#FFFFFF"/><text text-anchor="middle" pointer-events="none" x="0" y="-5" font-size="10px" fill="#FFFFFF" font-family="sans-serif"> The</text><text text-anchor="middle" pointer-events="none" x="0" y="5" font-size="10px" fill="#FFFFFF" font-family="sans-serif"> Matrix</text><text text-anchor="middle" pointer-events="none" x="0" y="15" font-size="10px" fill="#FFFFFF" font-family="sans-serif"> Reloa…</text></g><g class="node" transform="translate(83.29637499598026,207.04763603046254)"><circle class="outline" cx="0" cy="0" r="25" fill="#A5ABB6" stroke="#9AA1AC" stroke-width="2px"/><text text-anchor="middle" pointer-events="none" font-family="sans-serif" dy="1.5625" font-size="25" fill="#FFFFFF"/><text text-anchor="middle" pointer-events="none" font-family="sans-serif" dy="1.5625" font-size="25" fill="#FFFFFF"/><text text-anchor="middle" pointer-events="none" x="0" y="0" font-size="10px" fill="#FFFFFF" font-family="sans-serif"> The</text><text text-anchor="middle" pointer-events="none" x="0" y="10" font-size="10px" fill="#FFFFFF" font-family="sans-serif"> Matrix</text></g></g></svg>